<mxfile host="app.diagrams.net" modified="2023-10-26T18:30:08.224Z" agent="Mozilla/5.0 (Macintosh; Intel Mac OS X 10_15_7) AppleWebKit/605.1.15 (KHTML, like Gecko) Version/16.5.1 Safari/605.1.15" version="22.0.8" etag="ZAe2OvAyOJ-IX3-7mizM" type="github">
  <diagram name="Страница — 1" id="wWMy9JLJJV9ZENk0t9AI">
    <mxGraphModel>
      <root>
        <mxCell id="0" />
        <mxCell id="1" parent="0" />
      </root>
    </mxGraphModel>
  </diagram>
</mxfile>
